# xmcd CD database file
#
# Track frame offsets:
#	150
#	12750
#	27163
#	42094
#	56647
#	69082
#	85133
#	98301
#	112719
#	127362
#	145667
#	163428
#	178008
#	194291
#	209002
#	220175
#	237398
#	256448
#
# Disc length: 3612 seconds
#
# Revision: 3
# Processed by: cddbd v1.5.2PL0 Copyright (c) Steve Scherf et al.
# Submitted via: CDex 1.50beta10
#
DISCID=f90e1a12
DTITLE=Sam Taylor - Saxphone 9 波麗唱片
DYEAR=2000
DGENRE=Jazz
TTITLE0=sonyHarlem Nocturne有錄
TTITLE1=Red Sails In The Sunset
TTITLE2=Moon River
TTITLE3=Smoke Gets In Your Eyes
TTITLE4=Fascination
TTITLE5=Yesterday
TTITLE6=Danny Boy
TTITLE7=The Lonely One
TTITLE8=Tenderly Besame Mucho
TTITLE9=非Sam Taylor
TTITLE10=非Sam Taylor
TTITLE11=非Sam Taylor
TTITLE12=非Sam Taylor
TTITLE13=非Sam Taylor
TTITLE14=非Sam Taylor
TTITLE15=非Sam Taylor
TTITLE16=非Sam Taylor
TTITLE17=非Sam Taylor
EXTD=YEAR: 2000
EXTT0=
EXTT1=
EXTT2=
EXTT3=
EXTT4=
EXTT5=
EXTT6=
EXTT7=
EXTT8=
EXTT9=
EXTT10=
EXTT11=
EXTT12=
EXTT13=
EXTT14=
EXTT15=
EXTT16=
EXTT17=
PLAYORDER=
